<svg width="29" height="35" viewBox="0 0 29 35" fill="none" xmlns="http://www.w3.org/2000/svg">
<path d="M21.9855 1.49825C22.3562 1.04035 22.7962 0.677127 23.2806 0.429315C23.7649 0.181502 24.284 0.0539551 24.8082 0.0539551C25.3324 0.0539551 25.8515 0.181502 26.3358 0.429315C26.8201 0.677127 27.2602 1.04035 27.6309 1.49825C28.0015 1.95615 28.2956 2.49975 28.4962 3.09802C28.6968 3.6963 28.8 4.33752 28.8 4.98509C28.8 5.63265 28.6968 6.27387 28.4962 6.87215C28.2956 7.47042 28.0015 8.01402 27.6309 8.47192L8.57779 32.0081L0.81543 34.6232L2.93244 25.0344L21.9855 1.49825Z" stroke="black" stroke-width="2" stroke-linecap="round" stroke-linejoin="round"/>
</svg>
