<svg width="44" height="41" viewBox="0 0 44 41" fill="none" xmlns="http://www.w3.org/2000/svg">
<path d="M41.8824 13.6193C42.8271 13.6193 43.6 12.8464 43.6 11.9017C43.6 10.9571 42.8271 10.1842 41.8824 10.1842H11.3951C11.3436 10.1842 11.2835 10.1842 11.2319 10.1927L9.14507 4.70503C9.13648 4.68786 9.13648 4.67927 9.1279 4.6621C9.11931 4.62774 9.10213 4.60198 9.08496 4.56763C9.07637 4.54186 9.05919 4.52469 9.0506 4.49892C9.03343 4.47316 9.02484 4.4474 9.00767 4.42163C8.99049 4.39587 8.9819 4.37869 8.96473 4.35293C8.94755 4.32716 8.93037 4.3014 8.9132 4.28423C8.89602 4.25846 8.87885 4.24129 8.86167 4.21552C8.84449 4.19835 8.82732 4.17258 8.81014 4.15541C8.79297 4.12964 8.7672 4.11247 8.75003 4.09529C8.73285 4.07811 8.71567 4.06094 8.68991 4.04376C8.66415 4.02659 8.64697 4.00082 8.62121 3.98365C8.60403 3.96647 8.58685 3.94929 8.56109 3.94071C8.53533 3.92353 8.50956 3.90635 8.4838 3.88059C8.47521 3.872 8.45804 3.86342 8.44945 3.85483L2.61822 0.256471C1.81095 -0.241631 0.754634 0.00742039 0.256532 0.814689C-0.24157 1.62196 0.00748135 2.67828 0.81475 3.17638L6.13929 6.47416L13.6452 26.2179C13.7568 27.0595 14.4782 27.7036 15.3456 27.7036H38.1896C39.1342 27.7036 39.9072 26.9307 39.9072 25.986C39.9072 25.0413 39.1342 24.2684 38.1896 24.2684H16.5737L15.1996 20.6615H40.2421C41.1868 20.6615 41.9597 19.8886 41.9597 18.9439C41.9597 17.9992 41.1868 17.2263 40.2421 17.2263H13.9028L12.5287 13.6193H41.8824Z" fill="black"/>
<path d="M20.1117 31.2504C17.6555 31.2504 15.6631 33.2514 15.6631 35.699C15.6631 38.1466 17.6641 40.1475 20.1117 40.1475C22.5592 40.1475 24.5602 38.1466 24.5602 35.699C24.5602 33.2514 22.5678 31.2504 20.1117 31.2504ZM20.1117 36.721C19.5534 36.721 19.0983 36.2658 19.0983 35.7076C19.0983 35.1494 19.5534 34.6942 20.1117 34.6942C20.6699 34.6942 21.125 35.1494 21.125 35.7076C21.125 36.2658 20.6699 36.721 20.1117 36.721Z" fill="black"/>
<path d="M32.2806 31.2504C29.8244 31.2504 27.832 33.2514 27.832 35.699C27.832 38.1466 29.833 40.1475 32.2806 40.1475C34.7282 40.1475 36.7292 38.1466 36.7292 35.699C36.7292 33.2514 34.7368 31.2504 32.2806 31.2504ZM32.2806 36.721C31.7224 36.721 31.2672 36.2658 31.2672 35.7076C31.2672 35.1494 31.7224 34.6942 32.2806 34.6942C32.8388 34.6942 33.294 35.1494 33.294 35.7076C33.294 36.2658 32.8388 36.721 32.2806 36.721Z" fill="black"/>
</svg>
